<svg width="34" height="34" viewBox="0 0 34 34" fill="none" xmlns="http://www.w3.org/2000/svg">
<path d="M17 0C26.4 0 34 7.6 34 17C34 26.4 26.4 34 17 34C7.6 34 0 26.4 0 17C0 7.6 7.6 0 17 0ZM17 32C25.3 32 32 25.3 32 17C32 8.7 25.3 2 17 2C8.7 2 2 8.7 2 17C2 25.3 8.7 32 17 32Z" fill="#4A4848"/>
<path d="M17 0C26.4 0 34 7.6 34 17C34 26.4 26.4 34 17 34C7.6 34 0 26.4 0 17C0 7.6 7.6 0 17 0ZM17 32C25.3 32 32 25.3 32 17C32 8.7 25.3 2 17 2C8.7 2 2 8.7 2 17C2 25.3 8.7 32 17 32Z" fill="#4A4848"/>
<path d="M16.6999 7.30019L26.3999 17.0002L16.6999 26.7002L15.2999 25.3002L23.5999 17.0002L15.2999 8.7002L16.6999 7.30019Z" fill="#4A4848"/>
<path d="M25 18H8V16L25 16V18Z" fill="#4A4848"/>
</svg>
