<svg width="27" height="28" viewBox="0 0 27 28" fill="none" xmlns="http://www.w3.org/2000/svg">
<path d="M21.3125 10.875C23.9013 10.875 26 8.77633 26 6.1875C26 3.59867 23.9013 1.5 21.3125 1.5C18.7237 1.5 16.625 3.59867 16.625 6.1875C16.625 8.77633 18.7237 10.875 21.3125 10.875Z" stroke="black" stroke-width="2" stroke-linecap="round" stroke-linejoin="round"/>
<path d="M5.6875 26.5C8.27633 26.5 10.375 24.4013 10.375 21.8125C10.375 19.2237 8.27633 17.125 5.6875 17.125C3.09867 17.125 1 19.2237 1 21.8125C1 24.4013 3.09867 26.5 5.6875 26.5Z" stroke="black" stroke-width="2" stroke-linecap="round" stroke-linejoin="round"/>
<path d="M16.625 17.125H26V24.9375C26 25.3519 25.8354 25.7493 25.5424 26.0424C25.2493 26.3354 24.8519 26.5 24.4375 26.5H18.1875C17.7731 26.5 17.3757 26.3354 17.0826 26.0424C16.7896 25.7493 16.625 25.3519 16.625 24.9375V17.125ZM1 1.5H10.375V9.3125C10.375 9.7269 10.2104 10.1243 9.91735 10.4174C9.62433 10.7104 9.2269 10.875 8.8125 10.875H2.5625C2.1481 10.875 1.75067 10.7104 1.45765 10.4174C1.16462 10.1243 1 9.7269 1 9.3125V1.5Z" stroke="black" stroke-width="2" stroke-linecap="round" stroke-linejoin="round"/>
</svg>
