<svg width="21" height="21" viewBox="0 0 21 21" fill="none" xmlns="http://www.w3.org/2000/svg">
<path d="M20.0151 6.45972C20.0323 13.7531 10.7792 19.6783 10.3851 19.9231C10.2813 19.9886 10.1651 20.023 10.047 20.0233C9.92885 20.0236 9.81251 19.9897 9.70834 19.9246C9.31312 19.6818 0.0323137 13.8001 0.0151776 6.50671C0.0128079 4.79405 0.592705 3.15071 1.62765 1.93724C2.66259 0.723762 4.06805 0.0392473 5.5357 0.0338687C7.37944 0.0295367 8.9959 0.950959 10.0058 2.5125C11.0084 0.946231 12.6205 0.0172226 14.4642 0.0128907C15.9319 0.0113728 17.3406 0.689275 18.3812 1.89787C19.4218 3.10647 20.0094 4.74706 20.0151 6.45972Z" fill="#FF4F4F"/>
</svg>
