<svg width="20" height="20" viewBox="0 0 20 20" fill="none" xmlns="http://www.w3.org/2000/svg">
<path d="M14.5455 0C12.6364 0 10.9764 1.00731 10 2.69539C9.02364 1.00731 7.36364 0 5.45455 0C4.00843 0.0019706 2.62202 0.675006 1.59946 1.87146C0.576899 3.06792 0.00168419 4.6901 0 6.38214C0 9.48812 1.65455 12.7207 4.91818 15.9883C6.41369 17.4794 8.02911 18.7974 9.74182 19.924C9.82119 19.9739 9.90989 20 10 20C10.0901 20 10.1788 19.9739 10.2582 19.924C11.9709 18.7974 13.5863 17.4794 15.0818 15.9883C18.3455 12.7207 20 9.48812 20 6.38214C19.9983 4.6901 19.4231 3.06792 18.4005 1.87146C17.378 0.675006 15.9916 0.0019706 14.5455 0ZM10 18.6263C8.50818 17.619 1.09091 12.309 1.09091 6.38214C1.09211 5.02845 1.55224 3.73061 2.37032 2.77341C3.1884 1.81621 4.29761 1.27784 5.45455 1.27643C7.29818 1.27643 8.84636 2.4284 9.49545 4.28348C9.53655 4.40053 9.60646 4.50065 9.6963 4.57111C9.78613 4.64157 9.89185 4.67919 10 4.67919C10.1082 4.67919 10.2139 4.64157 10.3037 4.57111C10.3935 4.50065 10.4635 4.40053 10.5045 4.28348C11.1536 2.4284 12.7018 1.27643 14.5455 1.27643C15.7024 1.27784 16.8116 1.81621 17.6297 2.77341C18.4478 3.73061 18.9079 5.02845 18.9091 6.38214C18.9091 12.309 11.4918 17.619 10 18.6263Z" fill="black"/>
</svg>
