<svg width="25" height="25" viewBox="0 0 25 25" fill="none" xmlns="http://www.w3.org/2000/svg">
<path d="M19.9979 23.3335H1.6665V5.00195H12.682L14.3485 3.33545H1.6665C1.22451 3.33545 0.800634 3.51103 0.488105 3.82356C0.175577 4.13609 0 4.55997 0 5.00195V23.3335C0 23.7755 0.175577 24.1994 0.488105 24.5119C0.800634 24.8244 1.22451 25 1.6665 25H19.9979C20.4399 25 20.8638 24.8244 21.1763 24.5119C21.4889 24.1994 21.6644 23.7755 21.6644 23.3335V10.8347L19.9979 12.5012V23.3335Z" fill="black"/>
<path d="M24.6056 3.20229L21.7975 0.394227C21.6729 0.269264 21.5249 0.170118 21.3619 0.10247C21.1989 0.0348216 21.0241 0 20.8476 0C20.6711 0 20.4964 0.0348216 20.3334 0.10247C20.1704 0.170118 20.0223 0.269264 19.8977 0.394227L8.47389 11.8848L7.54899 15.8927C7.50958 16.087 7.51372 16.2876 7.56112 16.4801C7.60851 16.6726 7.69797 16.8522 7.82306 17.0059C7.94816 17.1597 8.10578 17.2839 8.28459 17.3694C8.4634 17.455 8.65895 17.4999 8.85718 17.5009C8.95965 17.5121 9.06302 17.5121 9.16549 17.5009L13.2067 16.6093L24.6056 5.1021C24.7305 4.97748 24.8297 4.82943 24.8973 4.66643C24.965 4.50342 24.9998 4.32867 24.9998 4.15219C24.9998 3.97571 24.965 3.80096 24.8973 3.63796C24.8297 3.47496 24.7305 3.32691 24.6056 3.20229ZM12.3402 15.0678L9.29047 15.7427L9.99873 12.718L18.5979 4.06054L20.9476 6.41031L12.3402 15.0678ZM21.8892 5.46873L19.5394 3.11896L20.831 1.80242L23.1974 4.16886L21.8892 5.46873Z" fill="black"/>
</svg>
