<svg width="25" height="25" viewBox="0 0 25 25" fill="none" xmlns="http://www.w3.org/2000/svg">
<path d="M18.4704 0.614531C18.8549 0.221038 19.3763 0 19.9199 0C20.4636 0 20.985 0.221038 21.3695 0.614531L24.3999 3.71763C24.7841 4.1114 25 4.6453 25 5.20198C25 5.75866 24.7841 6.29256 24.3999 6.68633L21.1269 10.0378L21.1129 10.0534L8.42422 22.455C8.19242 22.6819 7.91187 22.85 7.60511 22.9458L1.13306 24.9617C0.980865 25.0087 0.819081 25.0125 0.664933 24.9728C0.510785 24.9331 0.370043 24.8513 0.257696 24.7361C0.145247 24.6211 0.0653727 24.477 0.0265777 24.3191C-0.0122173 24.1613 -0.00848043 23.9956 0.0373903 23.8398L1.99787 17.24C2.10069 16.8945 2.28878 16.5821 2.54395 16.3328L15.2045 3.95762L18.4704 0.614531ZM3.75797 17.6348C3.72173 17.6706 3.69476 17.7152 3.67946 17.7644L2.19826 22.749L7.09302 21.2238C7.13696 21.21 7.17711 21.1857 7.2102 21.153L13.2293 15.2696L19.2485 9.38624L15.8033 5.85955L3.75797 17.6348ZM20.5059 8.12988L23.1577 5.41557C23.185 5.3877 23.2066 5.3546 23.2214 5.31815C23.2362 5.28171 23.2438 5.24264 23.2438 5.20318C23.2438 5.16372 23.2362 5.12465 23.2214 5.0882C23.2066 5.05175 23.185 5.01865 23.1577 4.99078L20.1274 1.88769C20.1001 1.85975 20.0678 1.83759 20.0322 1.82246C19.9966 1.80734 19.9585 1.79955 19.9199 1.79955C19.8814 1.79955 19.8432 1.80734 19.8077 1.82246C19.7721 1.83759 19.7397 1.85975 19.7125 1.88769L17.0618 4.602L20.5059 8.12988Z" fill="black"/>
</svg>
