<svg width="25" height="25" viewBox="0 0 25 25" fill="none" xmlns="http://www.w3.org/2000/svg">
<path fill-rule="evenodd" clip-rule="evenodd" d="M12.5 6.09374e-06C10.504 -0.00219888 8.57429 0.594055 7.0664 1.67891C5.55851 2.76377 4.57403 4.26413 4.29437 5.90357C4.0147 7.543 4.45867 9.21105 5.5445 10.6004C6.63032 11.9897 8.28483 13.0067 10.2032 13.464C7.47717 13.7386 5.13927 14.5379 3.37671 15.9792C1.1347 17.8106 0 20.5398 0 24.1004C0 24.339 0.114257 24.5678 0.317635 24.7365C0.521013 24.9052 0.796854 25 1.08447 25C1.3721 25 1.64794 24.9052 1.85131 24.7365C2.05469 24.5678 2.16895 24.339 2.16895 24.1004C2.16895 20.8428 3.2032 18.6458 4.89954 17.2595C6.59817 15.8712 9.13699 15.1515 12.5 15.1515C15.863 15.1515 18.4018 15.8712 20.1027 17.2595C21.7968 18.6477 22.831 20.8428 22.831 24.1004C22.831 24.339 22.9453 24.5678 23.1487 24.7365C23.3521 24.9052 23.6279 25 23.9155 25C24.2031 25 24.479 24.9052 24.6824 24.7365C24.8857 24.5678 25 24.339 25 24.1004C25 20.5398 23.8653 17.8125 21.621 15.9792C19.863 14.5398 17.5228 13.7386 14.7968 13.464C16.7088 13.0016 18.3558 11.983 19.4359 10.595C20.5161 9.20704 20.9571 7.54261 20.678 5.90681C20.399 4.27101 19.4186 2.77343 17.9166 1.68856C16.4146 0.603696 14.4916 0.0042173 12.5 6.09374e-06ZM6.39269 6.86553C6.39269 5.52187 7.03614 4.23324 8.18148 3.28313C9.32682 2.33302 10.8802 1.79925 12.5 1.79925C14.1198 1.79925 15.6732 2.33302 16.8185 3.28313C17.9639 4.23324 18.6073 5.52187 18.6073 6.86553C18.6073 8.2092 17.9639 9.49783 16.8185 10.4479C15.6732 11.3981 14.1198 11.9318 12.5 11.9318C10.8802 11.9318 9.32682 11.3981 8.18148 10.4479C7.03614 9.49783 6.39269 8.2092 6.39269 6.86553Z" fill="black"/>
</svg>
