<svg width="25" height="25" viewBox="0 0 25 25" fill="none" xmlns="http://www.w3.org/2000/svg">
<path d="M25 10.7143H21.6667V7.14286H20V10.7143H16.6667V12.5H20V16.0714H21.6667V12.5H25V10.7143ZM8.33333 1.78571C9.15742 1.78571 9.963 2.04754 10.6482 2.53808C11.3334 3.02862 11.8675 3.72585 12.1828 4.54159C12.4982 5.35733 12.5807 6.25495 12.4199 7.12094C12.2592 7.98693 11.8623 8.78238 11.2796 9.40673C10.6969 10.0311 9.95446 10.4563 9.14621 10.6285C8.33796 10.8008 7.50018 10.7124 6.73882 10.3745C5.97746 10.0366 5.32672 9.46437 4.86888 8.73022C4.41104 7.99608 4.16667 7.13295 4.16667 6.25C4.16667 5.066 4.60565 3.93049 5.38705 3.09327C6.16846 2.25606 7.22826 1.78571 8.33333 1.78571ZM8.33333 0C7.17961 0 6.05179 0.366556 5.09251 1.05331C4.13322 1.74007 3.38555 2.71619 2.94404 3.85823C2.50252 5.00027 2.38701 6.25693 2.61209 7.46931C2.83717 8.6817 3.39274 9.79534 4.20854 10.6694C5.02435 11.5435 6.06375 12.1388 7.19531 12.3799C8.32686 12.6211 9.49975 12.4973 10.5657 12.0242C11.6316 11.5512 12.5426 10.7501 13.1836 9.72231C13.8245 8.69451 14.1667 7.48613 14.1667 6.25C14.1667 4.5924 13.5521 3.00268 12.4581 1.83058C11.3642 0.65848 9.88043 0 8.33333 0ZM16.6667 25H15V20.5357C15 19.3517 14.561 18.2162 13.7796 17.379C12.9982 16.5418 11.9384 16.0714 10.8333 16.0714H5.83333C4.72826 16.0714 3.66846 16.5418 2.88705 17.379C2.10565 18.2162 1.66667 19.3517 1.66667 20.5357V25H0V20.5357C0 18.8781 0.614581 17.2884 1.70854 16.1163C2.80251 14.9442 4.28624 14.2857 5.83333 14.2857H10.8333C12.3804 14.2857 13.8642 14.9442 14.9581 16.1163C16.0521 17.2884 16.6667 18.8781 16.6667 20.5357V25Z" fill="black"/>
</svg>
