<svg width="27" height="27" viewBox="0 0 27 27" fill="none" xmlns="http://www.w3.org/2000/svg">
<path d="M1 26C1 24.2313 1 23.3475 1.55 22.8C2.09875 22.25 2.98125 22.25 4.75 22.25C6.51875 22.25 7.4025 22.25 7.95 22.8C8.5 23.3488 8.5 24.2325 8.5 26V14.75C8.5 12.9813 8.5 12.0975 9.05 11.55C9.59875 11 10.4825 11 12.25 11H14.75C16.5187 11 17.4025 11 17.95 11.55C18.5 12.0987 18.5 12.9825 18.5 14.75V26V22.25C18.5 20.4813 18.5 19.5975 19.05 19.05C19.5988 18.5 20.4813 18.5 22.25 18.5C24.0187 18.5 24.9025 18.5 25.45 19.05C26 19.5988 26 20.4825 26 22.25V26" stroke="black" stroke-width="1.5" stroke-linecap="round"/>
<path d="M12.4326 2.27875C12.9076 1.425 13.1451 1 13.5001 1C13.8551 1 14.0926 1.425 14.5676 2.27875L14.6901 2.49875C14.8251 2.74125 14.8926 2.86125 14.9976 2.94125C15.1039 3.02125 15.2351 3.05125 15.4976 3.11L15.7351 3.165C16.6576 3.37375 17.1189 3.4775 17.2289 3.83C17.3389 4.1825 17.0239 4.55125 16.3951 5.28625L16.2326 5.47625C16.0539 5.685 15.9639 5.78875 15.9239 5.91875C15.8839 6.04875 15.8976 6.1875 15.9239 6.46625L15.9489 6.72C16.0439 7.70125 16.0914 8.1925 15.8051 8.41C15.5176 8.62875 15.0851 8.42875 14.2214 8.03125L13.9989 7.92875C13.7526 7.81625 13.6301 7.75875 13.5001 7.75875C13.3701 7.75875 13.2476 7.81625 13.0014 7.92875L12.7789 8.03125C11.9151 8.42875 11.4826 8.62875 11.1951 8.41C10.9076 8.1925 10.9564 7.70125 11.0514 6.72L11.0764 6.46625C11.1026 6.1875 11.1164 6.04875 11.0764 5.91875C11.0364 5.78875 10.9464 5.685 10.7676 5.47625L10.6051 5.28625C9.97636 4.55125 9.66136 4.18375 9.77136 3.83C9.88136 3.4775 10.3426 3.37375 11.2651 3.165L11.5026 3.11C11.7651 3.05125 11.8964 3.0225 12.0026 2.94125C12.1076 2.86125 12.1751 2.74125 12.3101 2.49875L12.4326 2.27875Z" stroke="black" stroke-width="1.5"/>
</svg>
