<svg width="30" height="20" viewBox="0 0 30 20" fill="none" xmlns="http://www.w3.org/2000/svg">
<path d="M16.0938 3.30357C16.6875 2.99107 17.0833 2.42411 17.0833 1.78571C17.0833 0.799107 16.151 0 15 0C13.849 0 12.9167 0.799107 12.9167 1.78571C12.9167 2.42857 13.3125 2.99107 13.9062 3.30357L10.9219 8.41964C10.4479 9.23214 9.21875 9.46429 8.39062 8.89732L3.75 5.71429C4.01042 5.41518 4.16667 5.04464 4.16667 4.64286C4.16667 3.65625 3.23438 2.85714 2.08333 2.85714C0.932292 2.85714 0 3.65625 0 4.64286C0 5.62946 0.932292 6.42857 2.08333 6.42857H2.11979L4.5 17.6518C4.78646 19.0089 6.16667 20 7.78125 20H22.2188C23.8281 20 25.2083 19.0134 25.5 17.6518L27.8802 6.42857H27.9167C29.0677 6.42857 30 5.62946 30 4.64286C30 3.65625 29.0677 2.85714 27.9167 2.85714C26.7656 2.85714 25.8333 3.65625 25.8333 4.64286C25.8333 5.04464 25.9896 5.41518 26.25 5.71429L21.6094 8.89732C20.7812 9.46429 19.5521 9.23214 19.0781 8.41964L16.0938 3.30357Z" fill="#D9D9D9"/>
</svg>
