<svg width="37" height="37" viewBox="0 0 37 37" fill="none" xmlns="http://www.w3.org/2000/svg">
<path d="M10 0.5H26.7241C31.9708 0.5 36.2241 4.7533 36.2241 10V25C36.2241 30.2467 31.9708 34.5 26.7241 34.5H10C4.7533 34.5 0.5 30.2467 0.5 25V10C0.5 4.75329 4.75329 0.5 10 0.5Z" fill="white" stroke="black"/>
<g filter="url(#filter0_d_1468_77)">
<path d="M15.2297 10.908C16.5591 8.636 17.2233 7.5 18.217 7.5C19.2106 7.5 19.8748 8.636 21.2042 10.908L21.5484 11.496C21.9261 12.142 22.115 12.465 22.4088 12.678C22.7026 12.891 23.0698 12.97 23.8043 13.128L24.4716 13.272C27.0528 13.829 28.3423 14.107 28.6498 15.048C28.9562 15.988 28.0769 16.969 26.3173 18.93L25.8619 19.437C25.3624 19.994 25.1117 20.273 24.9994 20.617C24.8871 20.962 24.9249 21.334 25.0005 22.077L25.0697 22.754C25.3352 25.371 25.4684 26.679 24.6647 27.26C23.861 27.841 22.6522 27.311 20.2368 26.251L19.6104 25.977C18.9242 25.675 18.5811 25.525 18.217 25.525C17.8529 25.525 17.5098 25.675 16.8236 25.977L16.1982 26.251C13.7818 27.311 12.573 27.841 11.7703 27.261C10.9655 26.679 11.0988 25.371 11.3643 22.754L11.4335 22.078C11.5091 21.334 11.5468 20.962 11.4335 20.618C11.3223 20.273 11.0715 19.994 10.5721 19.438L10.1167 18.93C8.35707 16.97 7.47779 15.989 7.78418 15.048C8.09056 14.107 9.3822 13.828 11.9634 13.272L12.6307 13.128C13.3641 12.97 13.7303 12.891 14.0252 12.678C14.32 12.465 14.5078 12.142 14.8856 11.496L15.2297 10.908Z" fill="#FFD233"/>
<path d="M15.2297 10.908C16.5591 8.636 17.2233 7.5 18.217 7.5C19.2106 7.5 19.8748 8.636 21.2042 10.908L21.5484 11.496C21.9261 12.142 22.115 12.465 22.4088 12.678C22.7026 12.891 23.0698 12.97 23.8043 13.128L24.4716 13.272C27.0528 13.829 28.3423 14.107 28.6498 15.048C28.9562 15.988 28.0769 16.969 26.3173 18.93L25.8619 19.437C25.3624 19.994 25.1117 20.273 24.9994 20.617C24.8871 20.962 24.9249 21.334 25.0005 22.077L25.0697 22.754C25.3352 25.371 25.4684 26.679 24.6647 27.26C23.861 27.841 22.6522 27.311 20.2368 26.251L19.6104 25.977C18.9242 25.675 18.5811 25.525 18.217 25.525C17.8529 25.525 17.5098 25.675 16.8236 25.977L16.1982 26.251C13.7818 27.311 12.573 27.841 11.7703 27.261C10.9655 26.679 11.0988 25.371 11.3643 22.754L11.4335 22.078C11.5091 21.334 11.5468 20.962 11.4335 20.618C11.3223 20.273 11.0715 19.994 10.5721 19.438L10.1167 18.93C8.35707 16.97 7.47779 15.989 7.78418 15.048C8.09056 14.107 9.3822 13.828 11.9634 13.272L12.6307 13.128C13.3641 12.97 13.7303 12.891 14.0252 12.678C14.32 12.465 14.5078 12.142 14.8856 11.496L15.2297 10.908Z" stroke="black" stroke-width="1.5"/>
</g>
<defs>
<filter id="filter0_d_1468_77" x="2.97339" y="6.75" width="30.4871" height="29.4995" filterUnits="userSpaceOnUse" color-interpolation-filters="sRGB">
<feFlood flood-opacity="0" result="BackgroundImageFix"/>
<feColorMatrix in="SourceAlpha" type="matrix" values="0 0 0 0 0 0 0 0 0 0 0 0 0 0 0 0 0 0 127 0" result="hardAlpha"/>
<feOffset dy="4"/>
<feGaussianBlur stdDeviation="2"/>
<feComposite in2="hardAlpha" operator="out"/>
<feColorMatrix type="matrix" values="0 0 0 0 0 0 0 0 0 0 0 0 0 0 0 0 0 0 0.25 0"/>
<feBlend mode="normal" in2="BackgroundImageFix" result="effect1_dropShadow_1468_77"/>
<feBlend mode="normal" in="SourceGraphic" in2="effect1_dropShadow_1468_77" result="shape"/>
</filter>
</defs>
</svg>
