<svg width="30" height="28" viewBox="0 0 30 28" fill="none" xmlns="http://www.w3.org/2000/svg">
<path d="M20.6555 21.5813C20.4485 20.5231 20.0641 19.5485 19.5022 18.6574C18.9404 17.7663 18.2454 16.9959 17.4174 16.3461C16.5895 15.6963 15.658 15.1858 14.623 14.8145C13.588 14.4432 12.4988 14.2576 11.3553 14.2576C10.4879 14.2576 9.65007 14.3643 8.84179 14.5778C8.03351 14.7913 7.27945 15.0883 6.5796 15.4689C5.87974 15.8495 5.24396 16.3136 4.67225 16.8613C4.10054 17.4089 3.60769 18.0123 3.19369 18.6713C2.77969 19.3304 2.45934 20.0404 2.23263 20.8016C2.00591 21.5627 1.89256 22.3517 1.89256 23.1686H0C0 22.0825 0.172499 21.0197 0.517496 19.9801C0.862494 18.9405 1.36028 17.9798 2.01084 17.098C2.66141 16.2161 3.43519 15.4318 4.33218 14.7449C5.22918 14.058 6.22967 13.5336 7.33366 13.1716C6.78167 12.8374 6.28881 12.4522 5.8551 12.0159C5.42139 11.5796 5.04682 11.1016 4.73139 10.5818C4.41597 10.062 4.18433 9.5097 4.03647 8.92491C3.88861 8.34013 3.80483 7.74142 3.78512 7.12879C3.78512 6.14487 3.98226 5.22128 4.37654 4.35803C4.77082 3.49478 5.30803 2.73827 5.98817 2.08851C6.66831 1.43875 7.47166 0.928228 8.39823 0.556937C9.32479 0.185646 10.3105 0 11.3553 0C12.4002 0 13.381 0.185646 14.2977 0.556937C15.2144 0.928228 16.0177 1.43411 16.7077 2.07459C17.3977 2.71507 17.9399 3.47157 18.3342 4.34411C18.7284 5.21664 18.9256 6.14487 18.9256 7.12879C18.9256 7.74142 18.8467 8.34013 18.689 8.92491C18.5313 9.5097 18.2947 10.062 17.9793 10.5818C17.6639 11.1016 17.2942 11.5796 16.8704 12.0159C16.4465 12.4522 15.9487 12.8374 15.377 13.1716C16.3529 13.5243 17.2548 13.9884 18.0828 14.5639C18.9108 15.1394 19.6353 15.8031 20.2563 16.5549C20.8773 17.3068 21.3948 18.1283 21.8088 19.0194C22.2228 19.9105 22.4889 20.848 22.6072 21.8319L21.7644 22.6395L20.6555 21.5813ZM5.67767 7.12879C5.67767 7.87137 5.82553 8.5629 6.12124 9.20338C6.41695 9.84386 6.82109 10.4101 7.33366 10.902C7.84623 11.394 8.44751 11.7792 9.13751 12.0577C9.8275 12.3362 10.5668 12.4754 11.3553 12.4754C12.1341 12.4754 12.8684 12.3362 13.5584 12.0577C14.2484 11.7792 14.8497 11.3986 15.3622 10.916C15.8748 10.4333 16.2839 9.86706 16.5895 9.21731C16.895 8.56755 17.0429 7.87137 17.033 7.12879C17.033 6.39549 16.8852 5.70396 16.5895 5.0542C16.2937 4.40444 15.8896 3.83822 15.377 3.35554C14.8645 2.87287 14.2583 2.48765 13.5584 2.1999C12.8586 1.91215 12.1242 1.77292 11.3553 1.7822C10.5668 1.7822 9.83243 1.92143 9.15229 2.1999C8.47215 2.47837 7.87087 2.85894 7.34845 3.34162C6.82602 3.8243 6.41695 4.39516 6.12124 5.0542C5.82553 5.71324 5.67767 6.40477 5.67767 7.12879ZM30 20.2307L21.7644 28L17.7871 24.2407L19.1178 22.9876L21.7644 25.4659L28.6693 18.9776L30 20.2307Z" fill="black"/>
</svg>
