<svg width="20" height="20" viewBox="0 0 20 20" fill="none" xmlns="http://www.w3.org/2000/svg">
<path d="M19.9561 9.68846C19.9272 9.58846 19.2221 7.22308 17.6476 4.84103C16.1865 2.63333 13.6763 0 10 0C6.32368 0 3.81348 2.63333 2.35245 4.84103C0.777852 7.22308 0.0727586 9.58462 0.0439446 9.68846C0.0149717 9.78693 0 9.8935 0 10.0013C0 10.1091 0.0149717 10.2156 0.0439446 10.3141C0.0727586 10.4128 0.777852 12.7782 2.35245 15.1603C3.81348 17.368 6.32368 20 10 20C13.6763 20 16.1865 17.368 17.6476 15.1603C19.2221 12.7782 19.9272 10.4167 19.9561 10.3141C19.985 10.2156 20 10.1091 20 10.0013C20 9.8935 19.985 9.78693 19.9561 9.68846ZM10 18.4615C7.34065 18.4615 5.01858 16.9974 3.09737 14.1115C2.29203 12.9007 1.61052 11.5149 1.07531 10C1.61038 8.48533 2.29191 7.09998 3.09737 5.88974C5.01858 3.00256 7.34065 1.53846 10 1.53846C12.6594 1.53846 14.9814 3.00256 16.9026 5.88974C17.7081 7.09998 18.3896 8.48533 18.9247 10C18.3848 11.5654 15.678 18.4615 10 18.4615ZM10 4.10256C9.22898 4.10256 8.47527 4.44844 7.83419 5.09646C7.19311 5.74448 6.69345 6.66553 6.39839 7.74315C6.10333 8.82076 6.02613 10.0065 6.17655 11.1505C6.32697 12.2945 6.69825 13.3453 7.24345 14.1701C7.78864 14.9949 8.48326 15.5566 9.23947 15.7841C9.99568 16.0117 10.7795 15.8949 11.4918 15.4485C12.2042 15.0022 12.813 14.2463 13.2414 13.2764C13.6697 12.3066 13.8984 11.1664 13.8984 10C13.897 8.43653 13.4859 6.93767 12.7551 5.83213C12.0243 4.72659 11.0335 4.1046 10 4.10256ZM10 14.359C9.43012 14.359 8.87303 14.1033 8.39919 13.6244C7.92534 13.1454 7.55603 12.4646 7.33794 11.6681C7.11986 10.8716 7.06279 9.99516 7.17397 9.14961C7.28515 8.30405 7.55958 7.52735 7.96255 6.91774C8.36552 6.30813 8.87893 5.89297 9.43787 5.72478C9.9968 5.55659 10.5762 5.64291 11.1027 5.97283C11.6292 6.30275 12.0792 6.86145 12.3958 7.57828C12.7124 8.29511 12.8814 9.13788 12.8814 10C12.8814 11.1561 12.5778 12.2648 12.0375 13.0823C11.4971 13.8997 10.7642 14.359 10 14.359Z" fill="black"/>
</svg>
